<?xml version="1.0" standalone="no"?>
<!DOCTYPE svg PUBLIC "-//W3C//DTD SVG 1.1//EN" "http://www.w3.org/Graphics/SVG/1.1/DTD/svg11.dtd" >
<svg xmlns="http://www.w3.org/2000/svg">
<metadata>
Created by FontForge 20120731 at Fri Feb 24 10:38:08 2017
 By admin
</metadata>
<defs>
<font id="iconfont" horiz-adv-x="1024" >
  <font-face 
    font-family="iconfont"
    font-weight="500"
    font-stretch="normal"
    units-per-em="1024"
    panose-1="2 0 6 3 0 0 0 0 0 0"
    ascent="896"
    descent="-128"
    x-height="792"
    bbox="0 -212 1698 896"
    underline-thickness="0"
    underline-position="0"
    unicode-range="U+0078-F0153"
  />
<missing-glyph 
 />
    <glyph glyph-name=".notdef" 
 />
    <glyph glyph-name=".null" horiz-adv-x="0" 
 />
    <glyph glyph-name="nonmarkingreturn" horiz-adv-x="341" 
 />
    <glyph glyph-name="x" unicode="x" horiz-adv-x="1001" 
d="M281 543q-27 -1 -53 -1h-83q-18 0 -36.5 -6t-32.5 -18.5t-23 -32t-9 -45.5v-76h912v41q0 16 -0.5 30t-0.5 18q0 13 -5 29t-17 29.5t-31.5 22.5t-49.5 9h-133v-97h-438v97zM955 310v-52q0 -23 0.5 -52t0.5 -58t-10.5 -47.5t-26 -30t-33 -16t-31.5 -4.5q-14 -1 -29.5 -0.5
t-29.5 0.5h-32l-45 128h-439l-44 -128h-29h-34q-20 0 -45 1q-25 0 -41 9.5t-25.5 23t-13.5 29.5t-4 30v167h911zM163 247q-12 0 -21 -8.5t-9 -21.5t9 -21.5t21 -8.5q13 0 22 8.5t9 21.5t-9 21.5t-22 8.5zM316 123q-8 -26 -14 -48q-5 -19 -10.5 -37t-7.5 -25t-3 -15t1 -14.5
t9.5 -10.5t21.5 -4h37h67h81h80h64h36q23 0 34 12t2 38q-5 13 -9.5 30.5t-9.5 34.5q-5 19 -11 39h-368zM336 498v228q0 11 2.5 23t10 21.5t20.5 15.5t34 6h188q31 0 51.5 -14.5t20.5 -52.5v-227h-327z" />
    <glyph glyph-name="jian" unicode="&#xf0153;" 
d="M508 844q95 0 179 -36.5t146 -98.5t98.5 -145.5t36.5 -178.5t-36.5 -179t-98.5 -146t-146 -98.5t-179 -36.5t-178.5 36.5t-145.5 98.5t-98.5 146t-36.5 179t36.5 178.5t98.5 145.5t145.5 98.5t178.5 36.5zM736 323q31 0 55.5 15.5t24.5 47.5q0 31 -24.5 45.5t-55.5 14.5
h-452q-31 0 -56.5 -14.5t-25.5 -45.5q0 -32 25.5 -47.5t56.5 -15.5h452z" />
    <glyph glyph-name="shouye" unicode="&#xe61d;" 
d="M956 320v-459q0 -22 -15 -37t-37 -15h-181h-25h-26q-11 0 -18.5 7.5t-7.5 18.5v25v207q0 22 -15 37t-37 15h-155q-21 0 -36.5 -15t-15.5 -37v-207v-25q0 -11 -7.5 -18.5t-17.5 -7.5h-26h-26h-181q-21 0 -36.5 15t-15.5 37v460l451 439z" />
    <glyph glyph-name="pinglun" unicode="&#xe635;" horiz-adv-x="1025" 
d="M206 692h620q54 -57 99 -98v-492q-8 -33 -26.5 -54t-41 -30.5t-54 -13.5t-57 -3t-60 2.5t-53.5 0.5q-40 4 -82 -9.5t-71.5 -32t-71.5 -46t-69 -41.5q-7 81 -10 126q-26 0 -52 -0.5t-53 4.5t-49.5 13.5t-40 28t-26.5 47.5v498q58 55 98 100zM246 460q271 -4 541 0
q5 29 9 55l-22 20q-36 5 -231 4t-231 -1q-41 10 -63.5 -15t-2.5 -63zM248 372q-5 -43 -7 -60l23 -11q234 -10 505 -1l22 13l-8 60q-287 14 -535 -1zM260 214q-9 -16 -24 -43l17 -30q80 -4 164.5 -4.5t204.5 1t165 1.5q1 7 4.5 27.5t4.5 26.5l-21 21q-242 8 -515 0z" />
    <glyph glyph-name="icon" unicode="&#xe600;" 
d="M883 705h-742q-26 0 -44 -18.5t-18 -44.5v-537q0 -26 18 -44.5t44 -18.5h93l15 -174l170 174h464q25 0 43 18.5t18 44.5v537q0 26 -18 44.5t-43 18.5zM233.5 310q-25.5 0 -43.5 18.5t-18 45t18 45t43.5 18.5t43.5 -18.5t18 -45t-18 -45t-43.5 -18.5zM511.5 310
q-25.5 0 -43.5 18.5t-18 45t18 45t43.5 18.5t44 -18.5t18.5 -45t-18.5 -45t-44 -18.5zM790 310q-26 0 -44 18.5t-18 45t18 45t44 18.5t44 -18.5t18 -45t-18 -45t-44 -18.5z" />
    <glyph glyph-name="xin" unicode="&#xe633;" 
d="M63 420v35l2 11q4 53 20 97q36 94 120 124q54 20 124 8q119 -20 179 -122l4 -6q4 6 4 7q32 57 91 90q65 38 149 35q89 -4 142 -69q73 -90 59 -227q-6 -57 -54 -126q-47 -68 -133 -144q-42 -37 -119 -104.5t-95 -83.5q-2 -2 -45 -41q-40 38 -43 40q-29 26 -96 84.5
t-102 89.5q-81 71 -128 130q-54 68 -70 130q-1 2 -9 42z" />
    <glyph glyph-name="iconpinglun" unicode="&#xe615;" 
d="M846 719h-670q-37 0 -74.5 -37.5t-37.5 -74.5v-447q0 -37 37.5 -74t74.5 -37h56v-168l167 168h447q37 0 74.5 37t37.5 74v447q0 37 -37.5 74.5t-74.5 37.5zM343 328h-111v112h111v-112zM567 328h-112v112h112v-112zM790 328h-111v112h111v-112z" />
    <glyph glyph-name="iconfontxinzeng" unicode="&#xe602;" 
d="M512.5 781q-97.5 0 -186.5 -38t-153.5 -102.5t-102.5 -153t-38 -186.5t38 -186.5t102.5 -153t153.5 -102.5t186.5 -38t186.5 38t153 102.5t102 153t38 186.5t-38 186.5t-102 153t-153 102.5t-186.5 38zM736 269h-192v-192q0 -13 -9.5 -22.5t-22.5 -9.5t-22.5 9.5
t-9.5 22.5v192h-192q-13 0 -22.5 9.5t-9.5 22.5t9.5 22.5t22.5 9.5h192v192q0 13 9.5 22.5t22.5 9.5t22.5 -9.5t9.5 -22.5v-192h192q13 0 22.5 -9.5t9.5 -22.5t-9.5 -22.5t-22.5 -9.5z" />
    <glyph glyph-name="iconfontpinglun" unicode="&#xe691;" 
d="M298 -212q-5 0 -11 2q-15 7 -15 24v134h-173q-40 0 -69 29.5t-29 69.5v666q0 41 28.5 70t69.5 29h827q42 0 70 -30q29 -30 27 -69v-667q0 -40 -29 -69t-69 -29h-444l-166 -153q-7 -7 -17 -7zM99 761q-19 0 -33 -14t-14 -34v-666q0 -20 14 -34t33 -14h199q11 0 18 -7.5
t7 -17.5v-102l130 120q8 7 18 7h454q19 0 33 14t14 34v666q1 20 -12 33q-14 15 -34 15h-827zM784 460h-542q-11 0 -18.5 7.5t-7.5 18t7.5 18t18.5 7.5h542q11 0 18.5 -7.5t7.5 -18t-7.5 -18t-18.5 -7.5zM784 249h-542q-11 0 -18.5 7.5t-7.5 18t7.5 18t18.5 7.5h542
q11 0 18.5 -7.5t7.5 -18t-7.5 -18t-18.5 -7.5z" />
    <glyph glyph-name="yanjing" unicode="&#xe69c;" 
d="M511 570q-60 0 -116 -18t-111.5 -55.5t-106.5 -83t-114 -112.5q4 -5 13 -15q37 -38 55.5 -57.5t53 -51.5t57 -49t57.5 -38.5t65 -32t68.5 -18.5t78.5 -8q41 0 81 9.5t72.5 22.5t69.5 36.5t61.5 42t58 49.5t50 48t46.5 48q7 7 10 11q-36 42 -67.5 76t-77.5 72.5t-90.5 64
t-100.5 42.5t-113 17v0zM511 121q-74 0 -126.5 52.5t-52.5 127t52.5 127t127 52.5t127 -52.5t52.5 -127t-52.5 -127t-127.5 -52.5v0zM511 405q-43 0 -73.5 -30.5t-30.5 -74t30.5 -74t74 -30.5t74 30.5t30.5 74t-30.5 74t-74.5 30.5v0zM511 405z" />
    <glyph glyph-name="shanchu" unicode="&#xe696;" 
d="M515 572q-17 0 -29.5 -14t-12.5 -32h83q0 18 -12 32t-29 14zM346 94q0 -17 12 -29.5t29 -12.5h250q17 0 29 12.5t12 29.5v338h-332v-338zM584 333q0 9 8 15t17 6t19.5 -6.5t10.5 -14.5v-168q0 -8 -10.5 -14.5t-19.5 -6.5t-17 6.5t-8 14.5v168zM482 333q0 9 7.5 15t16.5 6
q10 0 20 -6.5t10 -14.5v-168q0 -8 -10 -14.5t-20 -6.5q-9 0 -16.5 6.5t-7.5 14.5v168zM385 333q0 9 7.5 15t16.5 6q10 0 20 -6.5t10 -14.5v-168q0 -8 -10 -14.5t-20 -6.5q-9 0 -16.5 6.5t-7.5 14.5v168zM512 812q-139 0 -257 -68.5t-186.5 -186.5t-68.5 -257t68.5 -257
t186.5 -186.5t257 -68.5t257 68.5t186.5 186.5t68.5 257t-68.5 257t-186.5 186.5t-257 68.5zM757 438v-340q0 -52 -33.5 -89t-84.5 -37h-248q-52 0 -89 37t-37 89v340q-17 0 -28.5 12.5t-11.5 30t12.5 31.5t29.5 14h124q0 52 36 87t88 35t88 -35t36 -87h118q17 0 29.5 -14
t12.5 -32q0 -17 -12.5 -29.5t-29.5 -12.5z" />
    <glyph glyph-name="comiisjiahao" unicode="&#xe601;" 
d="M828 699q-63 64 -145 97.5t-171.5 33.5t-171.5 -33.5t-145 -97t-97 -144.5t-34 -170.5t34 -171t97 -144.5t145 -96.5t171.5 -33.5t171.5 33.5t145 96.5t97 144.5t34 171t-34 170.5t-97 144v0zM735 352h-191v-192q0 -13 -9.5 -22.5t-23 -9.5t-22.5 9.5t-9 22.5v192h-192
q-14 0 -23 9.5t-9 23t9 22.5t23 9h192v192q0 13 9 22.5t22.5 9.5t23 -9.5t9.5 -22.5v-192h191q14 0 23 -9t9 -22.5t-9 -23t-23 -9.5v0zM735 352z" />
    <glyph glyph-name="pinglunhuifu" unicode="&#xe698;" 
d="M797 -11q-6 0 -10 4l-137 137h-495q-35 0 -60 25t-25 61v463q0 36 25 61t60 25h713q36 0 61 -25t25 -61v-463q0 -36 -25 -61t-61 -25h-57v-127q0 -9 -8 -13q-3 -1 -6 -1zM155 736q-23 0 -40 -16.5t-17 -40.5v-463q0 -24 17 -40.5t40 -16.5h501q6 0 10 -5l117 -117v107
q0 6 4 10.5t10 4.5h71q24 0 41 16.5t17 40.5v463q0 24 -17 40.5t-41 16.5h-713zM919 209zM512 499q-20 0 -34.5 -14.5t-14.5 -34.5t14.5 -34.5t34.5 -14.5t34.5 14.5t14.5 34.5t-14.5 34.5t-34.5 14.5v0zM512 499zM732 499q-20 0 -34 -14.5t-14 -34.5t14 -34.5t34.5 -14.5
t34.5 14.5t14 34.5t-14 34.5t-35 14.5v0zM732 499zM292 499q-21 0 -35 -14.5t-14 -34.5t14 -34.5t34.5 -14.5t34.5 14.5t14 34.5t-14 34.5t-34 14.5v0zM292 499z" />
    <glyph glyph-name="anonymous-iconfont" unicode="&#xe62f;" 
d="M512 2q-103 0 -190.5 51.5t-138.5 139.5t-51 192t51 192t138.5 139.5t190.5 51.5t190.5 -51.5t138.5 -139.5t51 -192t-51 -192t-138.5 -139.5t-190.5 -51.5zM700 402q0 12 -8.5 20.5t-20.5 8.5h-117v118q0 12 -8.5 20.5t-20.5 8.5h-29q-12 0 -20.5 -8.5t-8.5 -20.5v-118
h-117q-13 0 -21.5 -8.5t-8.5 -20.5v-30q0 -12 8.5 -20.5t21.5 -8.5h117v-118q0 -12 8.5 -20.5t20.5 -8.5h29q12 0 20.5 8.5t8.5 20.5v118h117q12 0 20.5 8.5t8.5 20.5v30z" />
    <glyph glyph-name="comment" unicode="&#xe607;" 
d="M773 715h-521q-54 0 -92.5 -38.5t-38.5 -92.5v-391q0 -54 38.5 -92t92.5 -38h130l128 -130l133 130h130q54 0 92 38t38 92v391q0 54 -38 92.5t-92 38.5v0zM512 454q27 0 46 -19t19 -46t-19 -46t-46 -19t-46 19t-19 46t19 46t46 19v0zM317 324q-27 0 -46 19t-19 46t19 46
t46 19t46 -19t19 -46t-19 -46t-46 -19v0zM708 324q-27 0 -46 19t-19 46t19 46t46 19t46 -19t19 -46t-19 -46t-46 -19v0z" />
    <glyph glyph-name="szp-eay" unicode="&#xe603;" 
d="M535 461q-32 0 -54.5 -22.5t-22.5 -54.5t22.5 -54.5t54.5 -22.5t54.5 22.5t22.5 54.5t-22.5 54.5t-54.5 22.5zM535 693q-52 0 -106 -17t-98 -44.5t-85.5 -60t-72.5 -65.5t-54 -60.5t-35.5 -44.5t-11.5 -17q4 -6 12 -17.5t34.5 -43.5t55 -61t71.5 -65t86.5 -61.5t97.5 -43
t106 -17.5t106 17t98 44.5t85.5 60t72.5 65.5t54.5 60.5t35.5 44.5l12 17q-5 6 -13 17.5t-34.5 43.5t-55 61t-71.5 65t-86 61.5t-97.5 43t-106.5 17.5zM535 191q-80 0 -136.5 56.5t-56.5 136.5t56.5 136.5t136.5 56.5t136.5 -56.5t56.5 -136.5t-56.5 -136.5t-136.5 -56.5z
" />
    <glyph glyph-name="iconfontlingdang2" unicode="&#xe63b;" 
d="M851 77h-681q-13 0 -18 12.5t6 22.5q29 25 49.5 76t24.5 106v111q0 143 68 220q72 80 211.5 80t211.5 -80q69 -77 69 -220v-111q3 -56 23 -106.5t49 -75.5q10 -9 5.5 -22t-18.5 -13zM214 116h593q-21 30 -39 97t-16 81v111q0 130 -60.5 195t-180.5 65q-240 0 -240 -260
v-113q-3 -61 -26 -118q-12 -31 -31 -58zM521 -15q-33 0 -56.5 23.5t-23.5 56.5q0 14 5 27q3 8 10.5 11.5t15 0.5t11 -10.5t1.5 -14.5q-3 -7 -3 -14q0 -16 12 -28t28.5 -12t28 12t11.5 28q0 7 -2 14q-3 7 0.5 14.5t11.5 10.5t15.5 -0.5t10.5 -11.5q4 -13 4 -27
q0 -33 -23.5 -56.5t-56.5 -23.5zM552 674q-8 0 -14 5.5t-6 14.5v31q0 9 -6 14.5t-14.5 5.5t-14 -5.5t-5.5 -14.5v-31q0 -9 -6 -14.5t-14.5 -5.5t-14.5 5.5t-6 14.5v31q0 25 18 42.5t43 17.5t43 -17.5t18 -42.5v-31q0 -9 -6.5 -14.5t-14.5 -5.5z" />
    <glyph glyph-name="11" unicode="&#xe672;" 
d="M512 -120q-208 0 -356 148t-148 356t148 356t356 148t356 -148t148 -356t-148 -356t-356 -148zM516 592q-84 0 -144 -60t-60 -144t60 -144t144 -60t144 60t60 144t-60 144t-144 60z" />
    <glyph glyph-name="fangda" unicode="&#xe647;" 
d="M941 42l-255 255q-12 12 -29 16q61 85 61 191q0 89 -43.5 164t-118.5 118.5t-164 43.5t-164 -43.5t-119 -118.5t-44 -164t44 -164t119 -119t164 -44q106 0 191 62q4 -16 16 -29l255 -255q18 -17 43.5 -17t43.5 17v0q18 18 18 43.5t-18 43.5zM593.5 301.5
q-39.5 -39.5 -90.5 -60.5q-53 -23 -111 -23t-111 23q-52 21 -91.5 60.5t-60.5 91.5q-23 53 -23 111t23 111q21 51 60.5 90.5t91.5 61.5q53 22 111 22t111 -22q51 -22 90.5 -61.5t61.5 -90.5q23 -53 23 -111t-23 -111q-22 -52 -61.5 -91.5zM912 -15.5q-6 -5.5 -14.5 -5.5
t-14.5 5l-255 255q-5 6 -5 14.5t5.5 14.5t14 6t14.5 -6l255 -255q6 -6 6 -14.5t-6 -14zM518 721q-90 52 -191 26q-10 -3 -7.5 -13t12.5 -7q93 24 175.5 -23.5t107.5 -140.5q2 -7 10 -7h2q10 3 8 13q-27 100 -117 152z" />
    <glyph glyph-name="pinglun1" unicode="&#xe625;" 
d="M803 102h-116l1 -1q-239 0 -453 -91l-36 -16v80v27v2v1q-58 7 -97 51t-39 103v359q0 65 45.5 110.5t109.5 45.5h585q65 0 110.5 -45.5t45.5 -110.5v-359q0 -65 -45.5 -110.5t-110.5 -45.5zM323 484q-24 0 -41 -16.5t-17 -40t17 -40.5t41 -17t41.5 17t17.5 40.5t-17.5 40
t-41.5 16.5zM525.5 484q-23.5 0 -40.5 -16.5t-17 -40t17 -40.5t40.5 -17t40.5 17t17 40.5t-17 40t-40.5 16.5zM727.5 484q-24.5 0 -41.5 -16.5t-17 -40t17 -40.5t41.5 -17t41.5 17t17 40.5t-17 40t-41.5 16.5z" />
    <glyph glyph-name="xiangji01" unicode="&#xe618;" 
d="M511 532q-77 0 -131 -54.5t-54 -131t54 -131t131 -54.5t131 54.5t54 131t-54 131t-131 54.5zM511 200q-61 0 -103.5 43t-42.5 103.5t42.5 103.5t103.5 43t104 -43t43 -103.5t-43 -103.5t-104 -43zM511 460q-47 0 -80.5 -33t-33.5 -80.5t33.5 -81t80.5 -33.5t80.5 33.5
t33.5 81t-33.5 80.5t-80.5 33zM812 771h-602q-34 0 -57.5 -24t-23.5 -57v-603q0 -34 23.5 -57.5t57.5 -23.5q23 -2 59.5 -5t119 -7.5t127.5 -4t119 5t125.5 8l51.5 3.5q34 0 58 23.5t24 57.5v603q0 33 -24 57t-58 24zM474 673v-4q-21 3 -22 -7q-2 -7 2 -10t8.5 -2.5t5.5 1.5
v6h-9v5h15l-1 -15q-33 -5 -33 13q0 16 34 13zM417 670l14 -16v19h5v-27h-6.5t-4 0.5t-2.5 1t-2.5 3.5t-4.5 5l-7 8q0 1 -1 1v-19h-5v2v25q11 0 14 -3zM365 674q11 0 11 -6q1 -4 0.5 -7t-0.5 -5v-3t1 -2t3 -1q13 0 14 2v21l5 1v-28h-23q-11 0 -11 9v19zM338 673q10 1 11 -5
q0 -2 -0.5 -8.5t0.5 -7.5q1 -2 12 -2l2 -2l2 -2h-17q-10 0 -10 9v9v9zM300 673q11 2 17 -6l2 -2l1 -1l9 -10v19h5v-27q-9 0 -10.5 0.5t-6.5 5.5q0 1 -1 1.5t-1 1.5q-8 9 -9 10l-1 -19h-5v27zM224 646l-6 6q-10 10 -14 8l-1 -14q-7 0 -9 2t-2 9v22h7t3 -2.5t1 -3t1 -7.5l7 5
q2 1 5.5 3t4.5 3t3.5 1.5l5 1t5.5 -0.5q0 -1 -4 -3q-1 -1 -3 -2l-2 -1q-10 -6 -11 -6l2 -2l3 -3q15 -15 15 -16h-5.5h-5.5zM265 651q-4 -6 -17.5 -4.5t-13.5 13.5q0 10 12.5 12.5t18.5 -4.5q8 5 9 5q7 2 15 -1t8 -12q0 -11 -11 -13.5t-17 2.5q-1 0 -2 1t-2 1zM511 116
q-95 0 -162.5 67.5t-67.5 163t67.5 162.5t162.5 67t162.5 -67t67.5 -162.5t-67.5 -163t-162.5 -67.5zM723 79v0l-1 -2v0q-8 -4 -14 2q-3 3 -3.5 7.5t2.5 6.5v0l70 70v0v0q8 8 15.5 0t-0.5 -15v0v0l-69 -69v0zM827 116v-1v0l-69 -68v0v0l-1 -2v0q-8 -5 -14 2q-3 2 -3.5 7
t2.5 6l-1 1l71 70v0v0q8 8 15.5 0t-0.5 -15z" />
    <glyph glyph-name="xiaoyanjing" unicode="&#xe650;" horiz-adv-x="1707" 
d="M808 577q-78 0 -130 -54.5t-52 -138.5q0 -35 15.5 -73t41.5 -64q30 -45 125 -45q77 0 129.5 54.5t52.5 138.5q0 77 -52.5 129.5t-129.5 52.5zM1582 418q-1 0 -14.5 16t-33.5 38t-51.5 54t-66.5 65.5t-80.5 70t-91.5 69.5t-100.5 63.5t-108 53t-112.5 35.5t-115 13
q-62 0 -127.5 -15.5t-125.5 -42.5t-117.5 -60.5t-109 -73.5t-96 -77t-82.5 -75t-63 -64t-44.5 -47.5t-19.5 -22.5l-23 -34l23 -34q3 -2 29 -30t67 -70t96 -93t124 -101t142.5 -91.5t159.5 -67t167 -25.5q73 0 150 20t142 51.5t130 74t115 84.5t97.5 87t76 76.5t51 57.5
t23.5 27l23 34zM808 88q-59 0 -109 24t-85 67q-91 76 -91 205q0 79 37.5 147t103.5 108.5t144 40.5t143.5 -40.5t103 -108.5t37.5 -147q0 -78 -40 -146.5t-105.5 -109t-138.5 -40.5z" />
    <glyph glyph-name="yanjing1" unicode="&#xe61c;" 
d="M1009 412q-6 8 -16 20.5t-38 43.5t-58.5 59.5t-75.5 62.5t-91 58.5t-103 40.5t-113 16t-113.5 -16.5t-103 -40.5t-91 -58t-75.5 -62t-58.5 -59.5t-38.5 -44t-16 -20.5q-9 -13 -9 -28t9 -28q6 -8 16 -21t38 -43.5t58.5 -59.5t76 -62.5t91 -58t103 -41t113.5 -16.5
t113 16.5t103 41t91 58t75.5 62.5t58.5 59.5t38 43.5t16 21q9 13 9 28t-9 28zM435 445q-26 -36 -12 -93q5 -19 -5 -35.5t-29 -20.5q-5 -2 -11 -2q-16 0 -29 10t-17 26q-25 104 32 176q25 32 61 50.5t65 18.5v0q19 0 33 -13t13.5 -32.5t-14 -33t-32.5 -13.5q-9 -1 -26 -11
t-29 -27zM611.5 223q-24.5 0 -42 17.5t-17.5 42t17.5 41.5t42 17t41.5 -17t17 -41.5t-17 -42t-41.5 -17.5zM116 384q47 56 114.5 114t146.5 92q-53 -34 -84.5 -89.5t-31.5 -121.5q0 -54 22 -102t61 -83q-120 62 -228 190zM659 182q45 35 71.5 86.5t26.5 110.5q0 72 -38 132
t-100 91q47 -16 94.5 -44.5t86 -62.5t64.5 -59.5t47 -51.5q-120 -143 -252 -202z" />
    <glyph glyph-name="yanjing2" unicode="&#xe611;" 
d="M80 403v-55q101 -123 205 -188.5t189.5 -74t165.5 11t139.5 62t104.5 85t68 72.5t23 32v53q-101 125 -205.5 193t-190 76.5t-165 -11.5t-139 -63t-104.5 -86.5t-68 -74t-23 -32.5zM531 174q-84 0 -143.5 59.5t-59.5 143t59.5 143t143.5 59.5t143.5 -59.5t59.5 -143
t-59.5 -143t-143.5 -59.5zM531 377zM398 377q0 55 39 94.5t94.5 39.5t94.5 -39.5t39 -94.5t-39 -94.5t-94.5 -39.5t-94.5 39.5t-39 94.5z" />
    <glyph glyph-name="arrow-left-sm" unicode="&#xe605;" 
d="M358 353l238 -238l29 30l-208 208l208 208l-29 30l-209 -208z" />
    <glyph glyph-name="jian1" unicode="&#xe631;" 
d="M512 818q-89 0 -169.5 -34.5t-139 -92.5t-93 -139t-34.5 -169.5t34.5 -169t93 -139t139 -93t169.5 -34.5t169.5 34.5t139 93t93 139t34.5 169t-34.5 169.5t-93 139t-139 92.5t-169.5 34.5v0zM277 416h470v-67v0h-470v67zM747 349z" />
    <glyph glyph-name="jiahao-copy" unicode="&#xe609;" 
d="M828 699q-63 64 -145 97.5t-171.5 33.5t-171.5 -33.5t-145 -97t-97 -144.5t-34 -170.5t34 -171t97 -144.5t145 -96.5t171.5 -33.5t171.5 33.5t145 96.5t97 144.5t34 171t-34 170.5t-97 144v0zM735 352h-191v-192q0 -13 -9.5 -22.5t-23 -9.5t-22.5 9.5t-9 22.5v192h-192
q-14 0 -23 9.5t-9 23t9 22.5t23 9h192v192q0 13 9 22.5t22.5 9.5t23 -9.5t9.5 -22.5v-192h191q14 0 23 -9t9 -22.5t-9 -23t-23 -9.5v0zM735 352z" />
    <glyph glyph-name="pinglunsshixin" unicode="&#xe6d4;" 
d="M901 760h-778q-38 0 -64.5 -27t-26.5 -65v-508q0 -38 26.5 -65t64.5 -27h296l63 -109q10 -17 30 -17t30 17l63 109h296q38 0 64.5 27t26.5 65v508q0 38 -26.5 65t-64.5 27zM820 304h-623q-8 0 -14 5.5t-6 14t6 14t14 5.5h623q8 0 14 -5.5t6 -14t-6 -14t-14 -5.5zM827 500
h-630q-8 0 -14 6t-6 14.5t6 14t14 5.5h630q8 0 14 -5.5t6 -14t-6 -14.5t-14 -6z" />
    <glyph glyph-name="gouwuche" unicode="&#xe662;" 
d="M910 323l81 328q4 16 -6.5 29.5t-27.5 13.5h-699l-26 127q-3 13 -12.5 20.5t-22.5 7.5h-130q-14 0 -24.5 -10t-10.5 -24.5t10.5 -25t24.5 -10.5h102l126 -597q3 -12 12.5 -20t21.5 -8h568q14 0 24 10.5t10 25t-10 24.5t-24 10h-539l-15 72h534q12 0 21.5 7.5t11.5 19.5z
M328 366l-55 258h639l-63 -258h-521zM382 -111q-48 0 -82.5 34.5t-34.5 82.5t34.5 82.5t82.5 34.5t82.5 -34.5t34.5 -82.5t-34.5 -82.5t-82.5 -34.5zM382 53q-19 0 -33 -14t-14 -33t14 -33t33 -14t33 14t14 33t-14 33t-33 14zM812.5 -111q-48.5 0 -82.5 34.5t-34 82.5
t34 82.5t82.5 34.5t82.5 -34.5t34 -82.5t-34 -82.5t-82.5 -34.5zM812.5 53q-19.5 0 -33 -14t-13.5 -33t13.5 -33t33 -14t33 14t13.5 33t-13.5 33t-33 14z" />
    <glyph glyph-name="yanjing3" unicode="&#xe610;" horiz-adv-x="1699" 
d="M1698 384q0 -41 -28.5 -94.5t-80 -110.5t-129.5 -112t-168.5 -98.5t-206.5 -70t-236 -26.5q-117 0 -231.5 26t-205.5 69t-169.5 97.5t-131 111.5t-82 111.5t-29.5 97t29.5 96.5t82.5 111t131.5 111.5t169.5 97.5t205.5 69t230.5 26q121 0 237 -26t207 -69t169 -97.5
t128.5 -111.5t79 -111t28.5 -97v0zM850 803q-111 0 -205.5 -56t-149 -152.5t-54.5 -210.5t54.5 -210.5t149 -152.5t205.5 -56t205.5 56t149 152.5t54.5 210.5t-54.5 210.5t-149 152.5t-205.5 56v0zM849 651q-108 0 -184 -78t-76 -188.5t76 -188.5t184 -78t184.5 78
t76.5 188.5t-76.5 188.5t-184.5 78v0z" />
    <glyph glyph-name="jiantou-copy-copy" unicode="&#xe64d;" 
d="M704 449l-256 386l-256 -386h125v-385h258v385h129z" />
    <glyph glyph-name="huangguan" unicode="&#xe642;" 
d="M959 514q0 47 -33 80q-14 14 -37.5 23.5t-42.5 9.5v0v0q-20 0 -43 -9.5t-37 -23t-23.5 -37t-9.5 -42.5v-1q0 -46 33 -79q6 -6 14 -12q-29 -29 -69.5 -35.5t-77.5 13.5q-28 15 -49 39.5t-29 53.5q-2 11 0 30t4.5 34t3.5 17q27 14 43 40.5t16 58.5q0 46 -33 79
q-14 14 -37 24t-43 10v0v0q-20 0 -43 -10t-37 -23.5t-23.5 -37t-9.5 -42.5v0v-1q0 -19 9.5 -42.5t23.5 -36.5q13 -13 30 -22l0.5 -0.5l0.5 -0.5q3 -6 6 -32.5t0 -44.5q-9 -29 -30 -54t-49 -41q-38 -20 -79.5 -13.5t-70.5 36.5q48 34 48 92q0 47 -33 80t-80 33t-80 -33
q-14 -13 -23.5 -36.5t-9.5 -42.5v-1v0q0 -19 9.5 -42.5t23.5 -36.5q21 -21 49 -29l94 -391q3 -14 15.5 -24t26.5 -10v0h464v0q14 0 26.5 10t15.5 24l94 391q36 10 59 40t23 68z" />
    <glyph glyph-name="jian2" unicode="&#xe619;" 
d="M512 831q-91 0 -174 -35.5t-142.5 -95.5t-95 -142.5t-35.5 -173.5t35.5 -173.5t95.5 -142.5t142.5 -95.5t173.5 -35.5t173.5 35.5t142.5 95.5t95.5 142.5t35 173.5t-35.5 173.5t-95 142.5t-142.5 95.5t-173.5 35.5zM720 424q11 0 20 -13t9 -25.5t-9 -26t-20 -13.5h-416
q-11 0 -20 13t-9 25.5t9 25.5t20 13z" />
  </font>
</defs>
</svg>
